# xmcd
#
# Track frame offsets: 
#        150
#        26419
#        49431
#        81358
#        106448
#        140830
#        169965
#        202458
#        236705
#        275791
#        310121
#
# Disc length: 4562 seconds
#
# Revision: 1
# Processed by: cddbd v1.5.2PL0 Copyright (c) Steve Scherf et al.
# Submitted via: ExactAudioCopyFreeDBPlugin 1.0
#
DISCID=af11d00b
DTITLE=Various Artist - Philly ReGrooved:  Tom Moulton Remixes
DYEAR=2011
DGENRE=Soul
TTITLE0=Ultra High Frequency - Incompatible
TTITLE1=First Choice - Smarty Pants
TTITLE2=The Quickest Way Out - Beware, She's Pulling My Strings
TTITLE3=First Choice - One Step Away
TTITLE4=Moment of Truth - Love at First Sight
TTITLE5=The Quickest Way Out - Who Am I
TTITLE6=Moment of Truth - I'm So Hopelessly in Love with You
TTITLE7=Loose Change - Straight from the Heart
TTITLE8=T.J.M. - Put Yourself in My Place
TTITLE9=Loose Change - Rising Cost of Love
TTITLE10=Terry Collins - Action Speaks Louder Than Words
EXTD=
EXTT0=
EXTT1=
EXTT2=
EXTT3=
EXTT4=
EXTT5=
EXTT6=
EXTT7=
EXTT8=
EXTT9=
EXTT10=
PLAYORDER=
